<svg width="24" height="24" viewBox="0 0 24 24" fill="none" xmlns="http://www.w3.org/2000/svg">
<path d="M9.74985 13.125C9.74985 13.3475 9.68387 13.565 9.56025 13.75C9.43663 13.935 9.26093 14.0792 9.05537 14.1643C8.8498 14.2495 8.6236 14.2718 8.40537 14.2284C8.18714 14.185 7.98669 14.0778 7.82935 13.9205C7.67202 13.7631 7.56487 13.5627 7.52146 13.3445C7.47806 13.1262 7.50033 12.9 7.58548 12.6945C7.67063 12.4889 7.81483 12.3132 7.99983 12.1896C8.18484 12.066 8.40234 12 8.62485 12C8.92322 12 9.20936 12.1185 9.42034 12.3295C9.63132 12.5405 9.74985 12.8266 9.74985 13.125ZM15.3748 12C15.1523 12 14.9348 12.066 14.7498 12.1896C14.5648 12.3132 14.4206 12.4889 14.3355 12.6945C14.2503 12.9 14.2281 13.1262 14.2715 13.3445C14.3149 13.5627 14.422 13.7631 14.5794 13.9205C14.7367 14.0778 14.9371 14.185 15.1554 14.2284C15.3736 14.2718 15.5998 14.2495 15.8054 14.1643C16.0109 14.0792 16.1866 13.935 16.3102 13.75C16.4339 13.565 16.4998 13.3475 16.4998 13.125C16.4998 12.8266 16.3813 12.5405 16.1703 12.3295C15.9594 12.1185 15.6732 12 15.3748 12ZM22.3545 18.0844L16.0733 20.8697C15.8844 20.9536 15.6804 20.9981 15.4737 21.0003C15.267 21.0025 15.0621 20.9624 14.8714 20.8825C14.6808 20.8026 14.5085 20.6846 14.3652 20.5357C14.2219 20.3867 14.1105 20.2101 14.038 20.0165L13.2777 17.954C12.8577 17.9822 12.4317 17.9965 11.9998 17.9972C11.568 17.9978 11.142 17.9834 10.722 17.954L9.96172 20.0165C9.88906 20.21 9.77764 20.3866 9.63428 20.5354C9.49093 20.6843 9.31868 20.8023 9.12809 20.8821C8.93751 20.962 8.7326 21.0021 8.52596 21C8.31932 20.9978 8.1153 20.9535 7.92641 20.8697L1.64516 18.0844C1.32096 17.9426 1.05762 17.6904 0.902063 17.3725C0.746508 17.0547 0.708845 16.692 0.795785 16.349L3.56235 5.43748C3.63536 5.15371 3.78954 4.89738 4.00601 4.6999C4.22247 4.50241 4.49183 4.37234 4.7811 4.3256L8.16172 3.76967C8.5344 3.70973 8.91606 3.79054 9.23246 3.99639C9.54886 4.20224 9.77739 4.51841 9.8736 4.88342L10.1792 6.08717C10.7748 6.02904 11.3817 5.99998 11.9998 5.99998C12.618 5.99998 13.2242 6.02904 13.8186 6.08717L14.1242 4.88342C14.2202 4.5183 14.4487 4.202 14.7652 3.99611C15.0816 3.79023 15.4634 3.70951 15.8361 3.76967L19.2186 4.3256C19.5079 4.37234 19.7772 4.50241 19.9937 4.6999C20.2102 4.89738 20.3643 5.15371 20.4373 5.43748L23.2058 16.3481C23.2928 16.6914 23.255 17.0546 23.0991 17.3726C22.9432 17.6906 22.6793 17.9429 22.3545 18.0844ZM21.7498 16.7137L18.9814 5.81248C18.9814 5.81248 18.9814 5.81248 18.9739 5.81248L15.5933 5.24998C15.5909 5.24858 15.5881 5.24784 15.5853 5.24784C15.5825 5.24784 15.5798 5.24858 15.5773 5.24998L15.312 6.29435C15.7808 6.38248 16.2495 6.48748 16.7023 6.61498C16.8809 6.66049 17.0364 6.77011 17.1393 6.92294C17.2421 7.07577 17.2852 7.26112 17.2601 7.44364C17.2351 7.62617 17.1438 7.79309 17.0035 7.91258C16.8633 8.03208 16.684 8.09578 16.4998 8.09154C16.4314 8.09135 16.3633 8.08189 16.2973 8.06342C14.8967 7.68334 13.4512 7.49382 11.9998 7.49998C10.5486 7.49352 9.10306 7.68272 7.70235 8.06248C7.60666 8.09206 7.50602 8.10218 7.40636 8.09223C7.3067 8.08229 7.21004 8.05249 7.12209 8.00458C7.03414 7.95668 6.95667 7.89164 6.89425 7.81331C6.83184 7.73498 6.78575 7.64494 6.7587 7.54851C6.73165 7.45208 6.72419 7.35121 6.73675 7.25184C6.74932 7.15248 6.78166 7.05664 6.83186 6.96998C6.88207 6.88332 6.94912 6.80759 7.02907 6.74726C7.10902 6.68693 7.20024 6.64323 7.29735 6.61873C7.74922 6.49123 8.21422 6.38623 8.68672 6.2981L8.42141 5.24998C8.42141 5.24998 8.42141 5.24998 8.41016 5.24998L5.02578 5.80592C5.02302 5.80516 5.02011 5.80516 5.01735 5.80592L2.24985 16.7184L8.5311 19.5C8.53426 19.5017 8.53781 19.5026 8.54141 19.5026C8.54501 19.5026 8.54856 19.5017 8.55172 19.5L9.18735 17.7862C8.55049 17.6888 7.92001 17.5536 7.29922 17.3812C7.11432 17.3221 6.95953 17.1937 6.86738 17.0228C6.77524 16.852 6.75292 16.6521 6.80513 16.4651C6.85733 16.2782 6.97998 16.1187 7.14731 16.0203C7.31463 15.9219 7.51359 15.8922 7.70235 15.9375C9.10297 16.3177 10.5486 16.5069 11.9998 16.5C13.4511 16.5069 14.8967 16.3177 16.2973 15.9375C16.4889 15.8838 16.694 15.9084 16.8674 16.0059C17.0409 16.1033 17.1685 16.2657 17.2222 16.4573C17.2759 16.6489 17.2513 16.854 17.1538 17.0274C17.0563 17.2008 16.8939 17.3285 16.7023 17.3822C16.0809 17.5543 15.4498 17.6892 14.8123 17.7862L15.4452 19.5C15.4482 19.5016 15.4516 19.5025 15.455 19.5025C15.4584 19.5025 15.4618 19.5016 15.4648 19.5L21.7498 16.7137Z" fill="#100F0F"/>
</svg>
