<svg width="24" height="24" viewBox="0 0 24 24" fill="none" xmlns="http://www.w3.org/2000/svg">
<path d="M23.1931 6.46314C23.1363 6.32608 23.0402 6.20893 22.9169 6.12649C22.7936 6.04406 22.6486 6.00004 22.5002 6.00001H19.6474C19.2486 5.32143 18.6809 4.7576 17.9997 4.36333C17.3184 3.96906 16.5467 3.75778 15.7596 3.75001C15.1732 3.74232 14.5912 3.85199 14.0478 4.07256C13.5045 4.29313 13.0107 4.62015 12.5956 5.03439C12.1683 5.45366 11.8292 5.95412 11.5982 6.50634C11.3671 7.05857 11.2488 7.65141 11.2502 8.25001V8.82095C7.47587 7.82532 4.38868 4.75501 4.35587 4.7222C4.25525 4.62069 4.12772 4.55004 3.98829 4.51858C3.84887 4.48712 3.70335 4.49615 3.56889 4.54462C3.43443 4.59309 3.31662 4.67896 3.22932 4.79214C3.14203 4.90532 3.0889 5.04109 3.07618 5.18345C2.67212 9.66376 3.97337 12.6619 5.13868 14.3878C5.70688 15.241 6.3981 16.0056 7.18993 16.6566C5.76212 18.3 3.51399 19.1634 3.48962 19.1728C3.38379 19.2125 3.28828 19.2755 3.21024 19.3572C3.1322 19.439 3.07363 19.5373 3.03893 19.6448C3.00422 19.7524 2.99426 19.8664 3.00981 19.9783C3.02535 20.0903 3.06599 20.1972 3.12868 20.2913C3.19899 20.3963 3.48024 20.7647 4.16743 21.1088C5.01681 21.5344 6.13899 21.75 7.50024 21.75C14.1256 21.75 19.6615 16.6481 20.2268 10.0838L23.0309 7.28064C23.1357 7.17569 23.2071 7.04201 23.236 6.89649C23.2648 6.75097 23.2499 6.60016 23.1931 6.46314ZM18.9743 9.22032C18.8457 9.34922 18.7684 9.5205 18.7568 9.7022C18.3752 15.6169 13.4327 20.25 7.50024 20.25C6.51024 20.25 5.81274 20.1188 5.32337 19.9613C6.40243 19.3753 7.90712 18.3675 8.87462 16.9163C8.9314 16.8309 8.97009 16.7349 8.9883 16.634C9.00651 16.5331 9.00384 16.4296 8.98047 16.3298C8.9571 16.23 8.91353 16.136 8.85243 16.0537C8.79133 15.9714 8.71401 15.9025 8.62524 15.8513C8.58118 15.8259 4.50868 13.3819 4.50024 6.85126C6.00024 8.07001 8.74243 9.96095 11.8756 10.4878C11.9829 10.5059 12.093 10.5004 12.198 10.4717C12.3031 10.443 12.4006 10.3918 12.4838 10.3215C12.5671 10.2513 12.634 10.1638 12.68 10.0651C12.726 9.96644 12.75 9.85891 12.7502 9.75001V8.25001C12.7494 7.84993 12.8286 7.45373 12.9832 7.08471C13.1377 6.71569 13.3645 6.38132 13.6502 6.10126C13.9241 5.82685 14.2503 5.61014 14.6094 5.46393C14.9684 5.31772 15.3532 5.24498 15.7409 5.25001C16.9277 5.26501 18.0368 5.98876 18.5009 7.05095C18.5594 7.18449 18.6555 7.29809 18.7776 7.37785C18.8996 7.4576 19.0423 7.50005 19.1881 7.50001H20.6881L18.9743 9.22032Z" fill="#100F0F"/>
</svg>
